<svg width="44" height="44" viewBox="0 0 44 44" fill="none" xmlns="http://www.w3.org/2000/svg">
<path d="M29.3334 14.6667C32.2508 14.6667 35.0487 15.8257 37.1116 17.8886C39.1745 19.9515 40.3334 22.7494 40.3334 25.6667V38.5001H33V25.6667C33 24.6943 32.6137 23.7617 31.9261 23.074C31.2385 22.3864 30.3058 22.0001 29.3334 22.0001C28.3609 22.0001 27.4283 22.3864 26.7407 23.074C26.053 23.7617 25.6667 24.6943 25.6667 25.6667V38.5001H18.3334V25.6667C18.3334 22.7494 19.4923 19.9515 21.5552 17.8886C23.6181 15.8257 26.416 14.6667 29.3334 14.6667Z" stroke="#EFE8EB" stroke-width="3.66667" stroke-linecap="round" stroke-linejoin="round"/>
<path d="M11 16.5H3.66663V38.5H11V16.5Z" stroke="#EFE8EB" stroke-width="3.66667" stroke-linecap="round" stroke-linejoin="round"/>
<path d="M7.33329 11.0001C9.35834 11.0001 11 9.35846 11 7.33341C11 5.30837 9.35834 3.66675 7.33329 3.66675C5.30825 3.66675 3.66663 5.30837 3.66663 7.33341C3.66663 9.35846 5.30825 11.0001 7.33329 11.0001Z" stroke="#EFE8EB" stroke-width="3.66667" stroke-linecap="round" stroke-linejoin="round"/>
</svg>
