<svg width="44" height="44" viewBox="0 0 44 44" fill="none" xmlns="http://www.w3.org/2000/svg">
<path d="M36.0594 9.19864C36.0456 9.17802 36.0319 9.15739 36.0044 9.15052C33.385 7.94739 30.6144 7.08802 27.775 6.59989C27.7475 6.59302 27.72 6.59989 27.6994 6.60677C27.6788 6.61364 27.6581 6.63427 27.6444 6.66177C27.2663 7.34239 26.9225 8.05052 26.62 8.76552C23.5538 8.29802 20.4394 8.29802 17.38 8.76552C17.0706 8.04364 16.7269 7.34239 16.3419 6.66177C16.3281 6.64114 16.3075 6.62052 16.2869 6.60677C16.2663 6.59302 16.2388 6.59302 16.2113 6.59302C13.3719 7.08114 10.6013 7.94052 7.9819 9.14364C7.96127 9.15052 7.94065 9.17114 7.9269 9.19177C2.68815 17.0155 1.25127 24.6536 1.95252 32.1886C1.95252 32.2093 1.9594 32.223 1.96627 32.2436C1.97315 32.2643 1.9869 32.2711 2.00065 32.2849C5.05315 34.5468 8.46315 36.2724 12.0931 37.3861C12.1206 37.393 12.1481 37.393 12.1688 37.3861C12.1894 37.3793 12.2169 37.3586 12.2306 37.338C13.0075 36.2793 13.7019 35.1518 14.2931 33.983C14.3 33.9693 14.3069 33.9486 14.3069 33.928C14.3069 33.9074 14.3069 33.8936 14.3 33.873C14.2931 33.8524 14.2863 33.8386 14.2725 33.8318C14.2588 33.8249 14.245 33.8111 14.2244 33.8043C13.1381 33.3849 12.0794 32.883 11.0688 32.2986C11.0481 32.2849 11.0344 32.2711 11.0206 32.2574C11.0069 32.2436 11 32.2161 11 32.1955C11 32.1749 11 32.1543 11.0138 32.1336C11.0275 32.113 11.0344 32.0993 11.055 32.0855C11.2681 31.9274 11.4813 31.7624 11.6806 31.5974C11.7013 31.5836 11.7219 31.5699 11.7425 31.5699C11.7631 31.5699 11.7906 31.5699 11.8113 31.5768C18.425 34.5949 25.5888 34.5949 32.1269 31.5768C32.1475 31.5699 32.175 31.563 32.1956 31.563C32.2163 31.563 32.2438 31.5768 32.2575 31.5905C32.4569 31.7555 32.67 31.9274 32.8831 32.0855C32.8969 32.0993 32.9106 32.113 32.9244 32.1336C32.9381 32.1543 32.9381 32.1749 32.9381 32.1955C32.9381 32.2161 32.9313 32.2368 32.9175 32.2574C32.9038 32.278 32.89 32.2918 32.8763 32.2986C31.8656 32.8899 30.8138 33.3918 29.7206 33.7974C29.7069 33.8043 29.6863 33.8111 29.6725 33.8249C29.6588 33.8386 29.6519 33.8524 29.645 33.873C29.6381 33.8936 29.6381 33.9074 29.6381 33.928C29.6381 33.9486 29.645 33.9624 29.6519 33.983C30.2569 35.1518 30.9444 36.2724 31.7144 37.338C31.7281 37.3586 31.7556 37.3793 31.7763 37.3861C31.7969 37.393 31.8313 37.393 31.8519 37.3861C35.4888 36.2724 38.9056 34.5468 41.965 32.2849C41.9788 32.2711 41.9925 32.2574 41.9994 32.2436C42.0063 32.2299 42.0131 32.2093 42.0131 32.1886C42.8588 23.4711 40.6038 15.9018 36.0388 9.19177L36.0594 9.19864ZM15.2969 27.603C13.3031 27.603 11.6669 25.7743 11.6669 23.533C11.6669 21.2918 13.2756 19.463 15.2969 19.463C17.3388 19.463 18.9613 21.3055 18.9269 23.533C18.9269 25.7811 17.3181 27.603 15.2969 27.603ZM28.7306 27.603C26.7369 27.603 25.1006 25.7743 25.1006 23.533C25.1006 21.2918 26.7094 19.463 28.7306 19.463C30.7725 19.463 32.395 21.3055 32.3606 23.533C32.3606 25.7811 30.7656 27.603 28.7306 27.603Z" fill="#EFE8EB"/>
</svg>
