<svg width="44" height="44" viewBox="0 0 44 44" fill="none" xmlns="http://www.w3.org/2000/svg">
<path d="M16.5641 36.293C7.58974 39.1465 7.58974 31.5372 4 30.586M29.1282 42V34.638C29.1955 33.7309 29.0799 32.819 28.789 31.9629C28.4981 31.1068 28.0386 30.3262 27.441 29.6729C33.0769 29.0071 39 26.7433 39 16.3565C38.9995 13.7005 38.0356 11.1464 36.3077 9.22277C37.1259 6.89908 37.068 4.33063 36.1462 2.05097C36.1462 2.05097 34.0282 1.38515 29.1282 4.86643C25.0144 3.68474 20.6779 3.68474 16.5641 4.86643C11.6641 1.38515 9.54615 2.05097 9.54615 2.05097C8.62426 4.33063 8.56641 6.89908 9.38462 9.22277C7.64382 11.1607 6.67889 13.7379 6.69231 16.4136C6.69231 26.7243 12.6154 28.988 18.2513 29.7299C17.6608 30.3767 17.2053 31.148 16.9147 31.9936C16.624 32.8392 16.5045 33.7402 16.5641 34.638V42" stroke="#EFE8EB" stroke-width="3.66667" stroke-linecap="round" stroke-linejoin="round"/>
</svg>
