<svg width="31" height="31" viewBox="0 0 31 31" fill="none" xmlns="http://www.w3.org/2000/svg">
<path d="M11.625 23.25V6.45833L27.125 3.875V20.6667" stroke="#B9B8B8" stroke-width="2.66667" stroke-linecap="round" stroke-linejoin="round"/>
<path d="M7.75 27.125C9.8901 27.125 11.625 25.3901 11.625 23.25C11.625 21.1099 9.8901 19.375 7.75 19.375C5.6099 19.375 3.875 21.1099 3.875 23.25C3.875 25.3901 5.6099 27.125 7.75 27.125Z" stroke="#B9B8B8" stroke-width="2.66667" stroke-linecap="round" stroke-linejoin="round"/>
<path d="M23.25 24.5416C25.3901 24.5416 27.125 22.8067 27.125 20.6666C27.125 18.5265 25.3901 16.7916 23.25 16.7916C21.1099 16.7916 19.375 18.5265 19.375 20.6666C19.375 22.8067 21.1099 24.5416 23.25 24.5416Z" stroke="#B9B8B8" stroke-width="2.66667" stroke-linecap="round" stroke-linejoin="round"/>
</svg>
